<?xml version="1.0" encoding="UTF-8"?>
<svg version="1.1" xmlns="http://www.w3.org/2000/svg" width="256" height="256">
<path d="M0 0 C67.32 0 134.64 0 204 0 C204 0.33 204 0.66 204 1 C122.82 1.495 122.82 1.495 40 2 C45.94 2.99 45.94 2.99 52 4 C58.8036682 7.44974726 63.52072569 11.12571015 66.3125 18.4375 C67.66002421 25.42012544 67.33744765 31.64734102 64 38 C61.86638733 40.31378441 59.57671111 42.19983196 57 44 C57.53109375 44.35191406 58.0621875 44.70382813 58.609375 45.06640625 C63.61724832 48.5664345 66.35290101 51.4940341 69 57 C69.33 57.66 69.66 58.32 70 59 C70.66128185 67.26060278 70.80711858 74.05638427 66 81 C63.859375 82.203125 63.859375 82.203125 62 83 C62 83.66 62 84.32 62 85 C49.23313768 92.36549749 35.02631656 91.25565874 20.75 91.125 C18.82943176 91.11494806 16.90885842 91.10582614 14.98828125 91.09765625 C10.32528904 91.0775398 5.66301883 91.03836122 1 91 C1.33 97.27 1.66 103.54 2 110 C2.99 109.505 2.99 109.505 4 109 C6.57517844 108.89788308 9.12357106 108.85661636 11.69920349 108.85955811 C12.50325546 108.85658698 13.30730743 108.85361586 14.1357246 108.8505547 C16.84496936 108.84184448 19.55417006 108.84035751 22.26342773 108.83886719 C24.19971817 108.83424072 26.13600769 108.8292163 28.07229614 108.82382202 C33.34287186 108.81068103 38.61343483 108.80424996 43.88402438 108.79981136 C47.1736161 108.79688388 50.46320431 108.79277974 53.75279427 108.78830719 C64.0358664 108.7746289 74.31893054 108.76496339 84.60201114 108.7611053 C96.48998778 108.75662106 108.37784964 108.73905757 120.26579136 108.7101047 C129.44372433 108.68852434 138.62162493 108.678403 147.79958302 108.67706418 C153.28654801 108.6760137 158.77340517 108.67005419 164.26034355 108.65224457 C169.41901312 108.63582641 174.57749305 108.63357779 179.73617935 108.64238358 C181.63290602 108.64315727 183.52964263 108.63876778 185.42634392 108.62892532 C188.00906279 108.61630549 190.59109978 108.62202774 193.17381287 108.63250732 C194.30843394 108.62042272 194.30843394 108.62042272 195.46597666 108.60809398 C200.49702825 108.65607567 200.49702825 108.65607567 202.99304295 110.36281204 C204 112 204 112 203.9375 114.5625 C203 117 203 117 201.43052006 118.13689137 C198.02412448 119.34654583 194.74300709 119.27200587 191.17417908 119.24723816 C190.38066892 119.24965257 189.58715876 119.25206699 188.76960284 119.25455457 C186.1079558 119.26019497 183.4465484 119.2515259 180.78491211 119.24291992 C178.87788325 119.24399271 176.97085471 119.24593135 175.06382751 119.24867249 C169.88217789 119.25352413 164.70061425 119.24586134 159.51897502 119.23571944 C154.10180809 119.22694489 148.6846439 119.22869627 143.26747131 119.2290802 C134.17073119 119.22814334 125.07402439 119.21945601 115.97729492 119.20581055 C105.45153271 119.19008009 94.92580701 119.1848126 84.40003389 119.1855461 C74.28407975 119.1861559 64.16813753 119.18105511 54.05218697 119.17275429 C49.74243642 119.16921863 45.43269009 119.16739064 41.12293816 119.16686058 C36.05128831 119.16585792 30.97966925 119.15976755 25.90802956 119.14969444 C24.0435594 119.14676742 22.1790857 119.14554448 20.31461334 119.14612198 C17.77598831 119.14661084 15.23745023 119.14097506 12.69883728 119.13371277 C11.95546031 119.13526137 11.21208335 119.13680997 10.44617981 119.1384055 C7.35423122 119.12372857 4.95750273 118.98583424 2 118 C2 122.62 2 127.24 2 132 C3.02890287 131.99815641 4.05780575 131.99631283 5.1178875 131.99441338 C30.12080347 131.95006981 55.12371435 131.91717492 80.1266613 131.89637566 C92.21775584 131.88605068 104.30882445 131.87196708 116.39990234 131.84912109 C126.93501239 131.82922454 137.47010366 131.81629246 148.00523198 131.81182301 C153.58663005 131.80920928 159.16797441 131.80304067 164.74935532 131.78853989 C169.9974223 131.77501491 175.24541318 131.770767 180.49349594 131.77378464 C182.42450371 131.77323219 184.3555139 131.76922459 186.28650665 131.76158905 C188.91333865 131.75170725 191.53987945 131.75400616 194.16671753 131.75949097 C194.93908151 131.75366528 195.71144548 131.7478396 196.50721443 131.74183738 C201.77175758 131.77175758 201.77175758 131.77175758 204 134 C203.67028521 137.29714793 203.3773161 138.6226839 201 141 C198.38148219 141.19538661 195.86889907 141.26487619 193.24937439 141.24723816 C192.43982774 141.24965257 191.63028109 141.25206699 190.79620272 141.25455457 C188.06840017 141.26021546 185.34082934 141.25151054 182.61303711 141.24291992 C180.66364986 141.2439922 178.71426293 141.24593008 176.76487732 141.24867249 C171.4592814 141.25353227 166.15376919 141.24585129 160.84818339 141.23571944 C155.30728288 141.22695854 149.76638515 141.228696 144.22547913 141.2290802 C134.92008049 141.22814274 125.6147144 141.21944734 116.30932617 141.20581055 C105.53476579 141.19007956 94.76024107 141.18481255 83.98567003 141.1855461 C73.64012081 141.18615544 63.29458327 141.18105894 52.94903755 141.17275429 C48.53715486 141.16921418 44.1252763 141.16739 39.71339226 141.16686058 C34.5235837 141.16585955 29.33380534 141.15978267 24.14400673 141.14969444 C22.23354655 141.14676183 20.32308289 141.1455456 18.41262054 141.14612198 C15.81626174 141.14660906 13.21998886 141.1409928 10.62364197 141.13371277 C9.47444595 141.13603567 9.47444595 141.13603567 8.30203384 141.1384055 C3.11417858 141.11417858 3.11417858 141.11417858 2 140 C2 144.95 2 149.9 2 155 C68 155 134 155 202 155 C202.99 157.475 202.99 157.475 204 160 C203.34 160.99 202.68 161.98 202 163 C199.3168514 163.2899768 196.86504166 163.38248633 194.18017578 163.3473053 C192.9546635 163.34903351 192.9546635 163.34903351 191.70439339 163.35079664 C188.95114616 163.35105594 186.19847384 163.32982373 183.4453125 163.30883789 C181.47784655 163.30471996 179.51037739 163.30194911 177.54290771 163.3004303 C173.2986901 163.29432379 169.05464675 163.27877908 164.81048584 163.25605965 C158.1055963 163.22037317 151.40076999 163.20630598 144.69580078 163.19541931 C131.6754402 163.17125444 118.6552061 163.12454071 105.63491821 163.07582855 C89.06112069 163.0150556 72.48730673 162.96540199 55.91342735 162.93383402 C49.24200029 162.92040663 42.57071563 162.89647715 35.89935303 162.8644315 C31.75621499 162.84638314 27.6130861 162.83644509 23.4699173 162.82866478 C21.54212406 162.823303 19.61433703 162.81446072 17.68657684 162.80196381 C15.06425544 162.78540293 12.44219084 162.78098742 9.81982422 162.77967834 C9.04882448 162.7718063 8.27782475 162.76393426 7.48346138 162.75582367 C3.28357833 162.62366458 3.28357833 162.62366458 0 165 C0 110.55 0 56.1 0 0 Z M20 19 C20 24.94 20 30.88 20 37 C23.56377018 37.13510502 27.12241117 37.23417099 30.6875 37.3125 C31.69490234 37.35439453 32.70230469 37.39628906 33.74023438 37.43945312 C39.88656988 37.58616793 39.88656988 37.58616793 45.14453125 34.6328125 C47.11984147 31.82995126 48 30.42383608 48 27 C46.44062529 22.77940788 46.44062529 22.77940788 43.19824219 19.83642578 C40.65258001 18.86780754 38.73499543 18.77152445 36.015625 18.8046875 C34.61376953 18.81435547 34.61376953 18.81435547 33.18359375 18.82421875 C31.73146484 18.84935547 31.73146484 18.84935547 30.25 18.875 C29.26644531 18.88402344 28.28289063 18.89304687 27.26953125 18.90234375 C24.84624974 18.92587075 22.42309369 18.96174063 20 19 Z M20 53 C20 60.26 20 67.52 20 75 C35.10444254 76.1228036 35.10444254 76.1228036 48.66796875 70.60546875 C50.89228886 67.92454334 50.88272253 65.40104671 51 62 C49.40088459 58.29678537 47.44091081 56.08540049 44 54 C41.02160547 53.06954955 38.34563528 52.88239977 35.234375 52.90234375 C34.43225586 52.90484131 33.63013672 52.90733887 32.80371094 52.90991211 C31.79598633 52.91901611 30.78826172 52.92812012 29.75 52.9375 C26.5325 52.958125 23.315 52.97875 20 53 Z " fill="#ECD0A9" transform="translate(26,45)"/>
<path d="M0 0 C7.71375 -0.103125 15.4275 -0.20625 23.375 -0.3125 C25.78989746 -0.35802002 28.20479492 -0.40354004 30.69287109 -0.45043945 C32.63637916 -0.46506121 34.5799027 -0.47779787 36.5234375 -0.48828125 C38.00130737 -0.526651 38.00130737 -0.526651 39.5090332 -0.5657959 C47.40143611 -0.57069558 53.97104723 1.39091025 59.94491577 6.74223328 C64.34135882 11.35829573 65.72776215 16.0598312 66.3125 22.375 C65.74012608 29.01453745 64.50106517 34.10915662 59.3125 38.5625 C58.22313854 39.39474509 57.12379987 40.21487954 56 41 C56.53109375 41.35191406 57.0621875 41.70382813 57.609375 42.06640625 C62.61724832 45.5664345 65.35290101 48.4940341 68 54 C68.33 54.66 68.66 55.32 69 56 C69.66128185 64.26060278 69.80711858 71.05638427 65 78 C62.859375 79.203125 62.859375 79.203125 61 80 C61 80.66 61 81.32 61 82 C43.06152763 92.34911867 19.03692641 88 0 88 C0 58.96 0 29.92 0 0 Z M19 16 C19 21.94 19 27.88 19 34 C22.56377018 34.13510502 26.12241117 34.23417099 29.6875 34.3125 C30.69490234 34.35439453 31.70230469 34.39628906 32.74023438 34.43945312 C38.88656988 34.58616793 38.88656988 34.58616793 44.14453125 31.6328125 C46.11984147 28.82995126 47 27.42383608 47 24 C45.44062529 19.77940788 45.44062529 19.77940788 42.19824219 16.83642578 C39.65258001 15.86780754 37.73499543 15.77152445 35.015625 15.8046875 C33.61376953 15.81435547 33.61376953 15.81435547 32.18359375 15.82421875 C30.73146484 15.84935547 30.73146484 15.84935547 29.25 15.875 C28.26644531 15.88402344 27.28289063 15.89304687 26.26953125 15.90234375 C23.84624974 15.92587075 21.42309369 15.96174063 19 16 Z M19 50 C19 57.26 19 64.52 19 72 C34.10444254 73.1228036 34.10444254 73.1228036 47.66796875 67.60546875 C49.89228886 64.92454334 49.88272253 62.40104671 50 59 C48.40088459 55.29678537 46.44091081 53.08540049 43 51 C40.02160547 50.06954955 37.34563528 49.88239977 34.234375 49.90234375 C33.43225586 49.90484131 32.63013672 49.90733887 31.80371094 49.90991211 C30.79598633 49.91901611 29.78826172 49.92812012 28.75 49.9375 C25.5325 49.958125 22.315 49.97875 19 50 Z " fill="#0C2343" transform="translate(27,48)"/>
<path d="M0 0 C22.11 0 44.22 0 67 0 C67 5.61 67 11.22 67 17 C59.41 17 51.82 17 44 17 C44 40.76 44 64.52 44 89 C37.4 89 30.8 89 24 89 C24 65.24 24 41.48 24 17 C16.08 17 8.16 17 0 17 C0 11.39 0 5.78 0 0 Z " fill="#102746" transform="translate(162,47)"/>
<path d="M0 0 C6.6 0 13.2 0 20 0 C20 23.43 20 46.86 20 71 C31.88 71 43.76 71 56 71 C56 76.94 56 82.88 56 89 C37.52 89 19.04 89 0 89 C0 59.63 0 30.26 0 0 Z " fill="#102746" transform="translate(111,47)"/>
<path d="M0 0 C0.80490639 -0.00467997 1.60981278 -0.00935994 2.43911028 -0.01418173 C5.14540449 -0.02618032 7.85119685 -0.01665566 10.55749512 -0.00723267 C12.49393511 -0.01129621 14.43037278 -0.01663686 16.36680603 -0.02316284 C21.63324834 -0.03686807 26.89951483 -0.03152456 32.16596031 -0.02202559 C37.66988992 -0.01444558 43.17380419 -0.02146997 48.67773438 -0.02618408 C57.92169913 -0.03164648 67.16559204 -0.02443732 76.4095459 -0.01016235 C87.10631648 0.00616506 97.80291553 0.0008769 108.49968195 -0.01564157 C117.67340138 -0.02924264 126.84706909 -0.03118285 136.02079535 -0.02332556 C141.50437578 -0.01864146 146.98787551 -0.01804442 152.47145081 -0.02793503 C157.62605405 -0.03658236 162.78043552 -0.03062372 167.93501472 -0.01325226 C169.83012079 -0.00927545 171.72524542 -0.01044176 173.62034416 -0.01704025 C176.20084527 -0.02519883 178.78062899 -0.01500355 181.36108398 0 C182.11681592 -0.00669217 182.87254785 -0.01338433 183.65118074 -0.02027929 C186.62340418 0.01340269 188.67854493 0.03740872 191.17316437 1.74460411 C192.18054199 3.38095093 192.18054199 3.38095093 192.11804199 5.94345093 C191.18054199 8.38095093 191.18054199 8.38095093 189.61106205 9.51784229 C186.20466647 10.72749676 182.92354908 10.65295679 179.35472107 10.62818909 C178.56121091 10.6306035 177.76770075 10.63301792 176.95014483 10.6355055 C174.28849779 10.64114589 171.62709039 10.63247683 168.9654541 10.62387085 C167.05842524 10.62494364 165.1513967 10.62688228 163.24436951 10.62962341 C158.06271988 10.63447506 152.88115624 10.62681226 147.69951701 10.61667037 C142.28235008 10.60789581 136.86518589 10.60964719 131.44801331 10.61003113 C122.35127318 10.60909426 113.25456639 10.60040693 104.15783691 10.58676147 C93.6320747 10.57103102 83.106349 10.56576352 72.58057588 10.56649703 C62.46462174 10.56710683 52.34867952 10.56200603 42.23272896 10.55370522 C37.92297841 10.55016956 33.61323208 10.54834156 29.30348015 10.54781151 C24.2318303 10.54680884 19.16021124 10.54071848 14.08857155 10.53064537 C12.22410139 10.52771835 10.3596277 10.52649541 8.49515533 10.52707291 C5.95653031 10.52756177 3.41799222 10.52192599 0.87937927 10.5146637 C0.13600231 10.5162123 -0.60737466 10.5177609 -1.3732782 10.51935643 C-4.46522679 10.5046795 -6.86195527 10.36678517 -9.81945801 9.38095093 C-11.14973621 3.93890375 -11.14973621 3.93890375 -9.82770538 1.70554161 C-6.73903811 -0.33166752 -3.57845451 -0.03168797 0 0 Z " fill="#96B79B" transform="translate(37.8194580078125,153.61904907226563)"/>
<path d="M0 0 C26.0422114 -0.04666238 52.08441656 -0.08196052 78.1266613 -0.10362434 C90.21775584 -0.11394932 102.30882445 -0.12803292 114.39990234 -0.15087891 C124.93501239 -0.17077546 135.47010366 -0.18370754 146.00523198 -0.18817699 C151.58663005 -0.19079072 157.16797441 -0.19695933 162.74935532 -0.21146011 C167.9974223 -0.22498509 173.24541318 -0.229233 178.49349594 -0.22621536 C180.42450371 -0.22676781 182.3555139 -0.23077541 184.28650665 -0.23841095 C186.91333865 -0.24829275 189.53987945 -0.24599384 192.16671753 -0.24050903 C192.93908151 -0.24633472 193.71144548 -0.2521604 194.50721443 -0.25816262 C199.77175758 -0.22824242 199.77175758 -0.22824242 202 2 C201.67028521 5.29714793 201.3773161 6.6226839 199 9 C196.3839924 9.19974808 193.8734901 9.27365726 191.25610352 9.26069641 C190.04284189 9.26643473 190.04284189 9.26643473 188.80506992 9.27228898 C186.07961698 9.28265392 183.35437334 9.27862027 180.62890625 9.2746582 C178.68114017 9.27900272 176.73337581 9.28418499 174.78561401 9.29014587 C169.48409519 9.30357434 164.18264748 9.30411034 158.88111496 9.30158257 C154.46228361 9.30051559 150.04346681 9.30538916 145.62463856 9.310188 C135.20450065 9.32129623 124.78439878 9.32171302 114.36425781 9.31567383 C103.59762724 9.30963001 92.83112722 9.32195244 82.06451893 9.3432439 C72.83479126 9.36082814 63.60510526 9.36686634 54.37536144 9.36360615 C48.85657899 9.36178826 43.33788968 9.36447972 37.81912231 9.37832069 C32.6317171 9.39084307 27.44451627 9.38900827 22.25711441 9.37590981 C20.34868426 9.37353232 18.44023998 9.37632028 16.53182602 9.38453293 C13.93560805 9.3949035 11.34008835 9.38697872 8.74389648 9.3742218 C7.98067864 9.38159609 7.2174608 9.38897037 6.43111515 9.39656812 C4.33274841 9.37473011 4.33274841 9.37473011 1 9 C-1 6 -1 6 -0.625 2.8125 C-0.41875 1.884375 -0.2125 0.95625 0 0 Z " fill="#F08368" transform="translate(28,177)"/>
</svg>
