<?xml version="1.0" standalone="yes"?>
<svg xmlns="http://www.w3.org/2000/svg" width="128" height="128">
<path style="fill:#01040a; stroke:none;" d="M0 0L0 128L128 128L128 0L0 0z"/>
<path style="fill:#f8f7f4; stroke:none;" d="M13 24L38 24.2755L72 23.9992L115 24C111.204 19.6555 98.5273 22 93 22L34 22C28.6272 22 16.702 19.7635 13 24z"/>
<path style="fill:#f1d0a0; stroke:none;" d="M14 23L14 24L33 24L14 23M56 23L56 24L65 24L56 23M80 33L81 33L81 24L114 24C108.731 21.7892 86.2417 20.3551 81.6034 24.0278C79.2536 25.8884 80.002 30.3743 80 33z"/>
<path style="fill:#9b9b99; stroke:none;" d="M13 24L13 68L14 68C14 55.5196 17.8102 35.4634 13 24z"/>
<path style="fill:#192f4d; stroke:none;" d="M14 24L14 68L37 67L37 66L15 67L15 25L33 25L14 24z"/>
<path style="fill:#56626f; stroke:none;" d="M34 24L34 25L38 25L34 24M39 24L43 27L43 26L39 24M55 24L55 68L56 68C56 55.5196 59.8102 35.4634 55 24z"/>
<path style="fill:#192f4d; stroke:none;" d="M56 24L56 68L83 68L83 58L82 58L82 67L57 67L57 25L64 25L64 59L65 59L65 24L56 24z"/>
<path style="fill:#9b9b99; stroke:none;" d="M65 24L65 59L66 59L65 24z"/>
<path style="fill:#192f4d; stroke:none;" d="M81 24L81 33L93 33L93 68L103 68L103 33L115 33L115 24L81 24M37.6667 25.3333L38.3333 25.6667L37.6667 25.3333z"/>
<path style="fill:#01040a; stroke:none;" d="M82 25L82 32L94 32L94 67L102 67L102 32L113 32L113 25L82 25z"/>
<path style="fill:#192f4d; stroke:none;" d="M43 27L45 30L43 27z"/>
<path style="fill:#56626f; stroke:none;" d="M45 29L46 37L47 37L45 29z"/>
<path style="fill:#192f4d; stroke:none;" d="M22 42L36 41L36 40L23 41L23 32L35 33C26.1115 26.2661 22.0009 33.9507 22 42M45.3333 31.6667L45.6667 32.3333L45.3333 31.6667z"/>
<path style="fill:#f1d0a0; stroke:none;" d="M23.6667 32.3333L24.3333 32.6667L23.6667 32.3333z"/>
<path style="fill:#ffcd67; stroke:none;" d="M25 32L25 33L33 33L25 32z"/>
<path style="fill:#9b9b99; stroke:none;" d="M23 33L23 41L24 41L23 33z"/>
<path style="fill:#56626f; stroke:none;" d="M34.6667 33.3333L35.3333 33.6667L34.6667 33.3333z"/>
<path style="fill:#9b9b99; stroke:none;" d="M92 33L92 68L93 68L92 33z"/>
<path style="fill:#ff0101; stroke:none;" d="M103 33L103 68L104 68L103 33z"/>
<path style="fill:#192f4d; stroke:none;" d="M36 34L36 36L38 36L38 34L36 34M45 34L45 37L46 37L45 34z"/>
<path style="fill:#56626f; stroke:none;" d="M36.3333 37.6667L36.6667 38.3333L36.3333 37.6667z"/>
<path style="fill:#192f4d; stroke:none;" d="M37.3333 37.6667L37.6667 38.3333L37.3333 37.6667M45 38L45 41L46 41L45 38z"/>
<path style="fill:#ffcd67; stroke:none;" d="M46.3333 38.6667L46.6667 39.3333L46.3333 38.6667z"/>
<path style="fill:#f8f7f4; stroke:none;" d="M35 39L36 40L35 39z"/>
<path style="fill:#ffa401; stroke:none;" d="M24 40L24 41L34 41L24 40z"/>
<path style="fill:#ffff01; stroke:none;" d="M45 41L46 42L45 41z"/>
<path style="fill:#f1d0a0; stroke:none;" d="M44 42L45 43L44 42M43 43L44 44L43 43z"/>
<path style="fill:#192f4d; stroke:none;" d="M40.3333 44.6667L40.6667 45.3333L40.3333 44.6667z"/>
<path style="fill:#56626f; stroke:none;" d="M41 44L45 49L46 49L41 44z"/>
<path style="fill:#192f4d; stroke:none;" d="M44.3333 47.6667L44.6667 48.3333L44.3333 47.6667M33 48L33 49L37 50L37 49L33 48z"/>
<path style="fill:#f1d0a0; stroke:none;" d="M46 48L47 49L46 48z"/>
<path style="fill:#192f4d; stroke:none;" d="M22 49L24 61L24 49L22 49z"/>
<path style="fill:#56626f; stroke:none;" d="M33.6667 49.3333L34.3333 49.6667L33.6667 49.3333z"/>
<path style="fill:#192f4d; stroke:none;" d="M46 49L46 62L47 62L46 49z"/>
<path style="fill:#9b9b99; stroke:none;" d="M47 49L47 52L48 52L47 49M23 50L23 59L24 59L23 50z"/>
<path style="fill:#56626f; stroke:none;" d="M35.6667 50.3333L36.3333 50.6667L35.6667 50.3333z"/>
<path style="fill:#192f4d; stroke:none;" d="M37 51L39 56L40 56L37 51z"/>
<path style="fill:#ff0101; stroke:none;" d="M37.3333 52.6667L37.6667 53.3333L37.3333 52.6667z"/>
<path style="fill:#f1d0a0; stroke:none;" d="M48 52L48 59L49 59L48 52z"/>
<path style="fill:#56626f; stroke:none;" d="M38 54L38 57L39 57L38 54z"/>
<path style="fill:#ffcd67; stroke:none;" d="M37.3333 55.6667L37.6667 56.3333L37.3333 55.6667z"/>
<path style="fill:#192f4d; stroke:none;" d="M37.3333 57.6667L37.6667 58.3333L37.3333 57.6667z"/>
<path style="fill:#56626f; stroke:none;" d="M35.6667 58.3333L36.3333 58.6667L35.6667 58.3333z"/>
<path style="fill:#9b9b99; stroke:none;" d="M83 58L83 68L84 68L83 58M32.6667 59.3333L33.3333 59.6667L32.6667 59.3333z"/>
<path style="fill:#192f4d; stroke:none;" d="M32 60L32 61L36 60L32 60z"/>
<path style="fill:#56626f; stroke:none;" d="M47 59L47 62L48 62L47 59z"/>
<path style="fill:#f1d0a0; stroke:none;" d="M46 62L47 63L46 62z"/>
<path style="fill:#f8f7f4; stroke:none;" d="M43 65L44 66L43 65z"/>
<path style="fill:#192f4d; stroke:none;" d="M38 66L38 67L41 67L38 66z"/>
<path style="fill:#f1d0a0; stroke:none;" d="M41 66L42 67L41 66z"/>
<path style="fill:#56626f; stroke:none;" d="M34 67L34 68L38 68L34 67z"/>
<path style="fill:#f57d5e; stroke:none;" d="M38.6667 67.3333L39.3333 67.6667L38.6667 67.3333z"/>
<path style="fill:#f8f7f4; stroke:none;" d="M12 68L12 78L14 78L14 68L12 68z"/>
<path style="fill:#ffac54; stroke:none;" d="M14 68L14 69L34 69L14 68M56 68L56 69L83 69L56 68z"/>
<path style="fill:#ffcd67; stroke:none;" d="M93.6667 68.3333L94.3333 68.6667L93.6667 68.3333z"/>
<path style="fill:#ffac54; stroke:none;" d="M95 68L95 69L103 69L95 68z"/>
<path style="fill:#8fb495; stroke:none;" d="M13 78C15.6277 84.5369 27.0523 82 33 82L93 82C99.3421 82 113.653 85.0715 115 77L47 77L13 78z"/>
<path style="fill:#f8f7f4; stroke:none;" d="M13 80L12 89L14 89L13 80z"/>
<path style="fill:#f39077; stroke:none;" d="M14 88L14 89L114 89L114 92L14 92C20.6777 94.8021 30.7844 93 38 93L91 93C93.9985 93 114.954 94.5734 114.079 90.1698C113.227 85.8855 93.6147 88 90 88L14 88z"/>
<path style="fill:#01ffff; stroke:none;" d="M114 88L115 89L114 88z"/>
<path style="fill:#ffac54; stroke:none;" d="M13 89L13 92L14 92L13 89z"/>
<path style="fill:#f57d5e; stroke:none;" d="M14 89L14 92L114 92L114 89L14 89z"/>
<path style="fill:#f8f7f4; stroke:none;" d="M12 92L12 105L14 92L12 92z"/>
<path style="fill:#01ffff; stroke:none;" d="M16 93L16 94L112 94L83 93L16 93z"/>
<path style="fill:#f1d0a0; stroke:none;" d="M15 99L15 100L114 100L111 103L111 104L115 104C113.619 95.7276 97.5392 99 91 99L15 99z"/>
<path style="fill:#ebc796; stroke:none;" d="M14 100C15.8524 106.333 27.6861 104 33 104L93 104C98.5374 104 112.078 106.57 114 100L14 100z"/>
<path style="fill:#f1d0a0; stroke:none;" d="M14 103L14 104L17 104L14 103z"/>
</svg>
